<svg xmlns="http://www.w3.org/2000/svg" width="100" viewBox="0 0 75 30" height="40" version="1.0">
    <path d="M23.681 12.484c-.086.105-.183.328-.297.672-.023.043-.062.148-.125.312a2.369 2.369 0 0 1-.203.422l-.312.594-.5.906a34.237 34.237 0 0 1-.875 1.563 4.943 4.943 0 0 1-.703.953c-.243.261-.47.386-.688.375-.21 0-.48-.301-.812-.907-.325-.601-.665-1.3-1.016-2.093l-1.078-2.313c-.012.137-.016.383-.016.735 0 .375.016 1.046.047 2.015.04 1.043.063 1.797.063 2.266.039.312.07.508.093.578.02.074.032.11.032.11 0 .906-.196 1.359-.579 1.359-.218 0-.382-.047-.484-.14a.709.709 0 0 1-.203-.376 4.178 4.178 0 0 1-.031-.594c0-.144.007-.347.03-.609 0-.063.005-.133.017-.219.007-.094.015-.191.015-.297.008-.851.016-1.64.016-2.359.031-1.79.062-3.086.094-3.89.039-.813.128-1.426.265-1.844.133-.426.348-.641.64-.641.165 0 .305.102.423.297.113.2.172.414.172.64v.094c.07.555.398 1.512.984 2.875.207.48.5 1.11.875 1.89.383.782.633 1.243.75 1.376.094 0 .187-.05.281-.156.102-.102.25-.305.438-.61.156-.258.691-1.367 1.609-3.328.54-1.187.875-1.898 1-2.14.04-.22.129-.415.266-.594.132-.188.265-.282.39-.282.239 0 .422.094.547.282.133.187.203.437.203.75a28.6 28.6 0 0 1-.093 2.078 61.266 61.266 0 0 0-.063 1.5l-.156 5.719c0 .148-.04.277-.11.39a.707.707 0 0 1-.218.235.457.457 0 0 1-.188.078c-.055 0-.152-.032-.297-.094a1.249 1.249 0 0 1-.406-.313c-.125-.156-.187-.359-.187-.609 0-.133.007-.27.03-.406.032-.133.071-.29.126-.469.008-.031.035-.117.078-.266.039-.144.062-.28.062-.406ZM33.551 10.984c-.125 1.305-.187 2.953-.187 4.953 0 .867.03 1.621.093 2.266h.672a3.82 3.82 0 0 1 .36-.016.981.981 0 0 1 .296.39c.07.169.11.368.11.594a.754.754 0 0 1-.125.422.857.857 0 0 1-.281.297.703.703 0 0 1-.329.094h-2.25c-.136 0-.296-.024-.484-.078a1.161 1.161 0 0 1-.5-.282.657.657 0 0 1-.219-.515c0-.258.063-.492.188-.703.125-.207.281-.313.469-.313l.734.063v-.407c0-.851.023-1.968.078-3.343.05-1.375.11-2.469.172-3.282h-.5c-.168 0-.313-.007-.438-.03a.52.52 0 0 1-.296-.22c-.086-.125-.125-.304-.125-.546v-.047c0-.352.078-.602.234-.75.156-.157.43-.235.828-.235l2.016-.015c.07 0 .222-.024.453-.078a3.98 3.98 0 0 1 .375-.047c.082 0 .176.058.281.172.102.105.192.23.266.375.082.136.125.25.125.343 0 .23-.059.43-.172.594a1.023 1.023 0 0 1-.39.375.809.809 0 0 1-.407.125c-.043 0-.105-.023-.188-.078a.394.394 0 0 0-.218-.078ZM43.223 20.093a3.416 3.416 0 0 1-1.64-.39c-.493-.258-.735-.774-.735-1.547 0-.114.023-.27.078-.469.063-.195.133-.367.219-.516.093-.144.191-.218.297-.218.007 0 .039.03.093.093.051.063.098.137.141.22.176.355.336.608.484.765.145.148.301.242.47.281.163.031.421.047.765.047.351 0 .726-.07 1.125-.219a3.471 3.471 0 0 0 1.015-.547c.282-.219.422-.422.422-.61 0-.187-.09-.347-.265-.484a2.513 2.513 0 0 0-.672-.343 10.843 10.843 0 0 0-1.094-.344 22.634 22.634 0 0 1-1.781-.578 3.42 3.42 0 0 1-1.188-.797c-.324-.352-.484-.8-.484-1.344 0-.812.191-1.523.578-2.14a3.907 3.907 0 0 1 1.484-1.407c.602-.32 1.22-.484 1.844-.484.395 0 .75.094 1.063.281.312.188.55.438.718.75.176.313.266.649.266 1 0 .461-.043.84-.125 1.14-.086.306-.25.454-.5.454-.168 0-.273-.066-.313-.203-.042-.145-.062-.352-.062-.625 0-.395-.11-.672-.328-.828-.219-.164-.54-.25-.953-.25-.305 0-.664.105-1.078.312-.407.211-.758.48-1.047.813-.293.336-.438.672-.438 1.015 0 .23.086.422.266.578.187.149.414.266.687.36.282.094.664.203 1.157.328.718.187 1.297.367 1.734.531.445.168.832.43 1.156.781.332.356.5.82.5 1.391 0 .719-.234 1.32-.703 1.797-.46.48-.996.836-1.61 1.062-.605.23-1.12.344-1.546.344ZM55.444 20.093a3.416 3.416 0 0 1-1.64-.39c-.493-.258-.735-.774-.735-1.547 0-.114.023-.27.078-.469.063-.195.133-.367.219-.516.094-.144.191-.218.297-.218.007 0 .039.03.093.093.051.063.098.137.141.22.176.355.336.608.484.765.145.148.301.242.47.281.163.031.421.047.765.047.351 0 .726-.07 1.125-.219a3.471 3.471 0 0 0 1.015-.547c.282-.219.422-.422.422-.61 0-.187-.09-.347-.265-.484a2.513 2.513 0 0 0-.672-.343 10.843 10.843 0 0 0-1.094-.344 22.634 22.634 0 0 1-1.781-.578 3.42 3.42 0 0 1-1.188-.797c-.324-.352-.484-.8-.484-1.344 0-.812.191-1.523.578-2.14a3.907 3.907 0 0 1 1.484-1.407c.602-.32 1.22-.484 1.844-.484.395 0 .75.094 1.063.281.312.188.55.438.718.75.176.313.266.649.266 1 0 .461-.043.84-.125 1.14-.086.306-.25.454-.5.454-.168 0-.273-.066-.312-.203-.043-.145-.063-.352-.063-.625 0-.395-.11-.672-.328-.828-.219-.164-.54-.25-.953-.25-.305 0-.664.105-1.078.312-.407.211-.758.48-1.047.813-.293.336-.438.672-.438 1.015 0 .23.086.422.266.578.187.149.414.266.687.36.282.094.664.203 1.157.328.718.187 1.297.367 1.734.531.445.168.832.43 1.156.781.332.356.5.82.5 1.391 0 .719-.234 1.32-.703 1.797-.46.48-.996.836-1.61 1.062-.605.23-1.12.344-1.546.344Zm0 0" fill="#8c52ff"/>
</svg>
